<svg viewBox="0 0 240 80" xmlns="http://www.w3.org/2000/svg">
  <defs>
    <linearGradient id="blueGrad" x1="0%" y1="0%" x2="100%" y2="100%">
      <stop offset="0%" stop-color="#1e3a8a" />
      <stop offset="100%" stop-color="#60a5fa" />
    </linearGradient>
    <linearGradient id="greenGrad" x1="0%" y1="0%" x2="100%" y2="100%">
      <stop offset="0%" stop-color="#16a34a" />
      <stop offset="100%" stop-color="#4ade80" />
    </linearGradient>
  </defs>
  <rect x="4" y="18" width="60" height="40" rx="10" fill="url(#blueGrad)" opacity="0.94" />
  <path d="M18 20 L34 14 L48 20 L50 35 L42 40 L34 34 L26 40 L18 35 Z" fill="#fff" />
  <circle cx="20" cy="50" r="6" fill="#e2e8f0" />
  <circle cx="46" cy="50" r="6" fill="#e2e8f0" />
  <path d="M66 60 L90 60 L108 30 L76 30 Z" fill="url(#greenGrad)" />
  <ellipse cx="82" cy="26" rx="11" ry="9" fill="#fff" />
  <ellipse cx="78" cy="22" rx="6" ry="6" fill="#16a34a" />
  <ellipse cx="90" cy="22" rx="6" ry="6" fill="#14b8a6" />
  <path d="M111 68 H232 V52 Q225 44 216 42 H120 Q110 42 108 52 V68 Z" fill="url(#blueGrad)" />
  <text x="118" y="50" font-family="Inter, Arial, sans-serif" font-size="32" font-weight="700" fill="#0f172a">Groceria</text>
  <text x="118" y="70" font-family="Inter, Arial, sans-serif" font-size="12" fill="#94a3b8">Fresh. Quality. Delivered.</text>
</svg>
